<svg width="12" height="13" viewBox="0 0 12 13" fill="none" xmlns="http://www.w3.org/2000/svg">
<path d="M3.03562 5.3125C3.06016 5.25145 3.09651 5.19584 3.14257 5.14887C3.18864 5.10189 3.24353 5.06447 3.30409 5.03875C3.36465 5.01303 3.42969 4.99951 3.49548 4.99897C3.56128 4.99844 3.62653 5.01089 3.6875 5.03562L5.5 5.76125V4C5.5 3.86739 5.55268 3.74021 5.64645 3.64645C5.74021 3.55268 5.86739 3.5 6 3.5C6.13261 3.5 6.25979 3.55268 6.35355 3.64645C6.44732 3.74021 6.5 3.86739 6.5 4V5.76125L8.3125 5.03562C8.37348 5.011 8.43872 4.99863 8.50448 4.99922C8.57024 4.99981 8.63525 5.01334 8.69578 5.03905C8.75631 5.06476 8.81119 5.10215 8.85727 5.14906C8.90336 5.19598 8.93975 5.25152 8.96437 5.3125C8.989 5.37348 9.00137 5.43872 9.00078 5.50448C9.00019 5.57024 8.98666 5.63525 8.96095 5.69578C8.93524 5.75631 8.89785 5.81119 8.85094 5.85727C8.80402 5.90336 8.74848 5.93975 8.6875 5.96438L6.79313 6.72188L7.9 8.2C7.97956 8.30609 8.01373 8.43944 7.99498 8.57071C7.97622 8.70199 7.90609 8.82043 7.8 8.9C7.69391 8.97956 7.56056 9.01373 7.42929 8.99498C7.29801 8.97622 7.17957 8.90609 7.1 8.8L6 7.33313L4.9 8.8C4.8606 8.85253 4.81125 8.89678 4.75475 8.93024C4.69825 8.96369 4.63571 8.98569 4.57071 8.99498C4.50571 9.00426 4.43952 9.00065 4.37591 8.98436C4.3123 8.96806 4.25253 8.9394 4.2 8.9C4.14747 8.8606 4.10322 8.81125 4.06976 8.75475C4.03631 8.69825 4.01431 8.63571 4.00503 8.57071C3.99574 8.50571 3.99935 8.43952 4.01564 8.37591C4.03194 8.3123 4.0606 8.25253 4.1 8.2L5.20875 6.72188L3.3125 5.96438C3.25145 5.93984 3.19584 5.90349 3.14887 5.85743C3.10189 5.81136 3.06447 5.75647 3.03875 5.69591C3.01303 5.63535 2.99951 5.57031 2.99897 5.50452C2.99844 5.43872 3.01089 5.37347 3.03562 5.3125ZM12 1.5V5C12 8.295 10.405 10.2919 9.06688 11.3869C7.62563 12.5656 6.19188 12.9663 6.12938 12.9825C6.04344 13.0059 5.95281 13.0059 5.86688 12.9825C5.80438 12.9663 4.3725 12.5656 2.92938 11.3869C1.595 10.2919 0 8.295 0 5V1.5C0 1.23478 0.105357 0.98043 0.292893 0.792893C0.48043 0.605357 0.734784 0.5 1 0.5H11C11.2652 0.5 11.5196 0.605357 11.7071 0.792893C11.8946 0.98043 12 1.23478 12 1.5ZM11 1.5H1V5C1 7.33125 1.86375 9.21937 3.56687 10.6131C4.29203 11.2062 5.11553 11.6675 6 11.9762C6.89619 11.6621 7.72999 11.1924 8.46313 10.5887C10.1462 9.1975 11 7.31687 11 5V1.5Z" fill="#0CF1CA"/>
</svg>
