<svg width="24" height="24" viewBox="0 0 24 24" fill="none" xmlns="http://www.w3.org/2000/svg">
	<g id="RocketLaunch">
<path id="Vector" d="M20.985 4.41714C20.9628 4.05145 20.8075 3.70653 20.5484 3.44747C20.2894 3.18841 19.9445 3.03312 19.5788 3.01089C18.3994 2.94058 15.3853 3.04839 12.8841 5.54871L12.4388 5.99964H6.97033C6.77259 5.99853 6.5766 6.03674 6.39377 6.11207C6.21093 6.18739 6.0449 6.29832 5.90533 6.43839L2.6897 9.65589C2.4925 9.85296 2.35412 10.1011 2.29009 10.3724C2.22606 10.6438 2.23893 10.9276 2.32724 11.192C2.41555 11.4565 2.57581 11.6911 2.79003 11.8695C3.00425 12.0479 3.26396 12.1631 3.54001 12.2021L7.14658 12.7056L11.2913 16.8503L11.7947 20.4587C11.8334 20.7348 11.9486 20.9945 12.1272 21.2085C12.3058 21.4226 12.5407 21.5824 12.8053 21.67C12.9595 21.7215 13.1209 21.7477 13.2835 21.7478C13.4802 21.7481 13.6752 21.7096 13.857 21.6343C14.0388 21.559 14.2039 21.4484 14.3428 21.309L17.5603 18.0934C17.7004 17.9538 17.8113 17.7878 17.8867 17.605C17.962 17.4221 18.0002 17.2261 17.9991 17.0284V11.56L18.4463 11.1128C20.9475 8.61152 21.0553 5.59746 20.985 4.41714ZM6.97033 7.49964H10.9388L7.23283 11.2046L3.74908 10.719L6.97033 7.49964ZM13.9463 6.61371C14.6669 5.88859 15.5341 5.32559 16.4897 4.96232C17.4453 4.59905 18.4674 4.44387 19.4878 4.50714C19.5535 5.52806 19.4 6.55122 19.0374 7.50786C18.6749 8.4645 18.1118 9.33245 17.386 10.0534L11.9991 15.4384L8.56033 11.9996L13.9463 6.61371ZM16.4991 17.0284L13.2806 20.2496L12.7941 16.765L16.4991 13.06V17.0284ZM9.54658 17.919C9.1247 18.8434 7.71376 20.9996 3.74908 20.9996C3.55016 20.9996 3.3594 20.9206 3.21875 20.78C3.07809 20.6393 2.99908 20.4486 2.99908 20.2496C2.99908 16.285 5.15533 14.874 6.0797 14.4512C6.16933 14.4103 6.26613 14.3875 6.36458 14.384C6.46302 14.3806 6.56119 14.3965 6.65346 14.431C6.74574 14.4655 6.83033 14.5178 6.90239 14.585C6.97445 14.6521 7.03258 14.7328 7.07345 14.8225C7.11433 14.9121 7.13715 15.0089 7.14061 15.1073C7.14407 15.2058 7.12811 15.3039 7.09364 15.3962C7.05917 15.4885 7.00685 15.5731 6.93969 15.6451C6.87253 15.7172 6.79183 15.7753 6.7022 15.8162C6.09939 16.0909 4.76908 16.975 4.5347 19.464C7.02376 19.2296 7.9097 17.8993 8.18251 17.2965C8.22339 17.2069 8.28152 17.1262 8.35358 17.059C8.42564 16.9919 8.51022 16.9396 8.6025 16.9051C8.69478 16.8706 8.79294 16.8546 8.89139 16.8581C8.98984 16.8616 9.08664 16.8844 9.17626 16.9253C9.26589 16.9661 9.34659 17.0243 9.41375 17.0963C9.48092 17.1684 9.53323 17.253 9.5677 17.3453C9.60217 17.4375 9.61814 17.5357 9.61467 17.6341C9.61121 17.7326 9.58839 17.8294 9.54751 17.919H9.54658Z" fill="white"/>
</g>
</svg>
