<svg
	width="10"
	height="10"
	viewBox="0 0 10 10"
	fill="none"
	xmlns="http://www.w3.org/2000/svg"
>
<path d="M9.34269 3.79917C9.30362 3.67906 9.22988 3.5732 9.13075 3.49493C9.03163 3.41666 8.91155 3.36947 8.78566 3.35932L6.48097 3.17338L5.59113 1.02143C5.543 0.904171 5.4611 0.803871 5.35583 0.733281C5.25055 0.662691 5.12667 0.625 4.99992 0.625C4.87317 0.625 4.74928 0.662691 4.64401 0.733281C4.53873 0.803871 4.45683 0.904171 4.40871 1.02143L3.51964 3.17299L1.21378 3.35932C1.08768 3.36999 0.967529 3.41763 0.868383 3.49628C0.769237 3.57493 0.695504 3.68108 0.656424 3.80145C0.617344 3.92182 0.614655 4.05104 0.648692 4.17293C0.682729 4.29482 0.75198 4.40396 0.847768 4.48667L2.60558 6.00346L2.07003 8.27143C2.04008 8.39464 2.04742 8.52398 2.0911 8.64302C2.13479 8.76206 2.21286 8.86543 2.31541 8.94001C2.41795 9.0146 2.54035 9.05704 2.66706 9.06193C2.79376 9.06683 2.91907 9.03397 3.02707 8.96752L4.99972 7.75346L6.97355 8.96752C7.08159 9.03319 7.20663 9.06541 7.33295 9.06015C7.45926 9.05488 7.5812 9.01236 7.68339 8.93794C7.78559 8.86351 7.86348 8.76051 7.90726 8.64191C7.95104 8.52331 7.95874 8.3944 7.92941 8.27143L7.39191 6.00307L9.14972 4.48627C9.24628 4.40371 9.31617 4.29433 9.35052 4.17202C9.38487 4.0497 9.38215 3.91993 9.34269 3.79917ZM8.74347 4.01284L6.84113 5.65346C6.79774 5.69086 6.76547 5.73945 6.74784 5.79394C6.7302 5.84843 6.72788 5.90672 6.74113 5.96245L7.32238 8.41557C7.32388 8.41895 7.32403 8.42278 7.3228 8.42627C7.32156 8.42976 7.31903 8.43264 7.31574 8.43432C7.30871 8.43979 7.30675 8.43862 7.30089 8.43432L5.16339 7.11987C5.11417 7.0896 5.05751 7.07358 4.99972 7.07358C4.94193 7.07358 4.88528 7.0896 4.83605 7.11987L2.69855 8.4351C2.69269 8.43862 2.69113 8.43979 2.68371 8.4351C2.68041 8.43342 2.67788 8.43054 2.67665 8.42705C2.67541 8.42356 2.67556 8.41973 2.67706 8.41635L3.25831 5.96323C3.27156 5.90751 3.26924 5.84922 3.25161 5.79472C3.23397 5.74023 3.2017 5.69164 3.15831 5.65424L1.25597 4.01362C1.25128 4.00971 1.24699 4.0062 1.25089 3.99409C1.2548 3.98198 1.25792 3.98354 1.26378 3.98276L3.76066 3.7812C3.81793 3.77628 3.87273 3.75567 3.91905 3.72163C3.96536 3.68758 4.00138 3.64142 4.02316 3.58823L4.98488 1.25971C4.988 1.25307 4.98917 1.24995 4.99855 1.24995C5.00792 1.24995 5.0091 1.25307 5.01222 1.25971L5.97628 3.58823C5.99826 3.64144 6.03452 3.68755 6.08105 3.72147C6.12757 3.75538 6.18257 3.77578 6.23996 3.78041L8.73683 3.98198C8.74269 3.98198 8.74621 3.98198 8.74972 3.99331C8.75324 4.00463 8.74972 4.00893 8.74347 4.01284Z" fill="white"/>
</svg>
