<svg width="16" height="15" viewBox="0 0 16 15" fill="none" xmlns="http://www.w3.org/2000/svg">
<g id="UsersThree" opacity="0.8" clip-path="url(#clip0_468_1946)">
<path id="Vector" d="M14.8439 8.81199C14.7947 8.84893 14.7386 8.8758 14.679 8.89108C14.6194 8.90635 14.5573 8.90974 14.4964 8.90103C14.4354 8.89233 14.3768 8.8717 14.3239 8.84034C14.2709 8.80898 14.2246 8.76749 14.1877 8.71824C13.9051 8.33847 13.5374 8.03035 13.114 7.81866C12.6907 7.60698 12.2235 7.49766 11.7502 7.49949C11.658 7.49949 11.5679 7.4723 11.4911 7.42134C11.4143 7.37037 11.3542 7.2979 11.3183 7.21297C11.294 7.1553 11.2815 7.09334 11.2815 7.03074C11.2815 6.96815 11.294 6.90619 11.3183 6.84852C11.3542 6.76359 11.4143 6.69111 11.4911 6.64015C11.5679 6.58919 11.658 6.562 11.7502 6.56199C12.0132 6.56197 12.2709 6.48819 12.4941 6.34903C12.7173 6.20987 12.897 6.01091 13.0127 5.77475C13.1285 5.53859 13.1757 5.2747 13.149 5.01305C13.1224 4.75139 13.0228 4.50247 12.8618 4.29455C12.7007 4.08663 12.4845 3.92804 12.2379 3.83681C11.9912 3.74558 11.7239 3.72535 11.4663 3.77843C11.2087 3.83151 10.9711 3.95577 10.7806 4.13709C10.5901 4.31841 10.4542 4.54952 10.3885 4.80418C10.3731 4.86381 10.3461 4.91983 10.309 4.96904C10.272 5.01824 10.2256 5.05967 10.1726 5.09096C10.1195 5.12224 10.0609 5.14277 9.99987 5.15137C9.93888 5.15998 9.8768 5.15648 9.81717 5.1411C9.75754 5.12571 9.70152 5.09872 9.65231 5.06168C9.60311 5.02464 9.56168 4.97828 9.5304 4.92523C9.49911 4.87218 9.47858 4.81349 9.46998 4.7525C9.46137 4.69152 9.46487 4.62944 9.48026 4.56981C9.57152 4.21667 9.74394 3.88971 9.9838 3.61493C10.2237 3.34016 10.5243 3.12516 10.8619 2.98704C11.1995 2.84892 11.5647 2.7915 11.9283 2.81934C12.292 2.84717 12.6442 2.9595 12.9568 3.14739C13.2694 3.33528 13.5339 3.59354 13.7291 3.90161C13.9244 4.20969 14.045 4.55909 14.0815 4.922C14.1179 5.28491 14.0692 5.65132 13.9391 5.99208C13.809 6.33284 13.6012 6.63853 13.3322 6.88485C13.9696 7.16082 14.5237 7.59876 14.9394 8.15516C14.9764 8.20453 15.0032 8.2607 15.0184 8.32046C15.0336 8.38021 15.0368 8.44238 15.028 8.50339C15.0191 8.5644 14.9983 8.62307 14.9667 8.67602C14.9351 8.72898 14.8934 8.77518 14.8439 8.81199ZM11.6869 12.4214C11.7208 12.4747 11.7436 12.5344 11.7538 12.5968C11.7641 12.6591 11.7616 12.723 11.7466 12.7844C11.7316 12.8458 11.7043 12.9035 11.6663 12.9541C11.6284 13.0046 11.5806 13.047 11.5259 13.0787C11.4712 13.1103 11.4106 13.1305 11.3478 13.1382C11.2851 13.1458 11.2214 13.1406 11.1607 13.123C11.1 13.1054 11.0435 13.0757 10.9945 13.0357C10.9456 12.9956 10.9053 12.9461 10.876 12.8901C10.5807 12.3901 10.1601 11.9757 9.65582 11.6879C9.15151 11.4 8.58086 11.2486 8.00018 11.2486C7.4195 11.2486 6.84885 11.4 6.34454 11.6879C5.84023 11.9757 5.41968 12.3901 5.1244 12.8901C5.09509 12.9461 5.05476 12.9956 5.00583 13.0357C4.95689 13.0757 4.90036 13.1054 4.83965 13.123C4.77893 13.1406 4.71528 13.1458 4.65252 13.1382C4.58976 13.1305 4.5292 13.1103 4.47446 13.0787C4.41973 13.047 4.37196 13.0046 4.33403 12.9541C4.2961 12.9035 4.26879 12.8458 4.25375 12.7844C4.23871 12.723 4.23625 12.6591 4.24651 12.5968C4.25677 12.5344 4.27954 12.4747 4.31346 12.4214C4.76791 11.6405 5.46084 11.0261 6.29041 10.6682C5.82361 10.3108 5.48055 9.81615 5.30944 9.25369C5.13833 8.69123 5.14778 8.08929 5.33646 7.53248C5.52514 6.97568 5.88356 6.49199 6.36135 6.14942C6.83914 5.80685 7.41227 5.62262 8.00018 5.62262C8.58809 5.62262 9.16122 5.80685 9.639 6.14942C10.1168 6.49199 10.4752 6.97568 10.6639 7.53248C10.8526 8.08929 10.862 8.69123 10.6909 9.25369C10.5198 9.81615 10.1767 10.3108 9.70994 10.6682C10.5395 11.0261 11.2324 11.6405 11.6869 12.4214ZM8.00018 10.312C8.37102 10.312 8.73353 10.202 9.04187 9.996C9.35021 9.78997 9.59054 9.49714 9.73245 9.15452C9.87437 8.81191 9.9115 8.43491 9.83915 8.0712C9.7668 7.70748 9.58823 7.37339 9.326 7.11117C9.06378 6.84894 8.72969 6.67037 8.36597 6.59802C8.00226 6.52567 7.62526 6.56281 7.28265 6.70472C6.94003 6.84663 6.6472 7.08696 6.44117 7.3953C6.23515 7.70364 6.12518 8.06615 6.12518 8.43699C6.12518 8.93427 6.32272 9.41119 6.67435 9.76282C7.02598 10.1144 7.5029 10.312 8.00018 10.312ZM4.71893 7.03074C4.71893 6.90642 4.66954 6.7872 4.58163 6.69929C4.49373 6.61138 4.3745 6.56199 4.25018 6.56199C3.98717 6.56197 3.72943 6.48819 3.50625 6.34903C3.28307 6.20987 3.10339 6.01091 2.98762 5.77475C2.87184 5.53859 2.82462 5.2747 2.85131 5.01305C2.878 4.75139 2.97753 4.50247 3.1386 4.29455C3.29967 4.08663 3.51582 3.92804 3.7625 3.83681C4.00918 3.74558 4.2765 3.72535 4.5341 3.77843C4.7917 3.83151 5.02925 3.95577 5.21977 4.13709C5.41029 4.31841 5.54614 4.54952 5.6119 4.80418C5.64298 4.92462 5.72063 5.02777 5.82776 5.09096C5.9349 5.15414 6.06275 5.17218 6.18319 5.1411C6.30362 5.11002 6.40678 5.03237 6.46996 4.92523C6.53314 4.81809 6.55118 4.69024 6.5201 4.56981C6.42884 4.21667 6.25641 3.88971 6.01655 3.61493C5.77669 3.34016 5.47601 3.12516 5.13843 2.98704C4.80086 2.84892 4.4357 2.7915 4.07203 2.81934C3.70835 2.84717 3.35619 2.9595 3.04357 3.14739C2.73095 3.33528 2.46649 3.59354 2.27124 3.90161C2.076 4.20969 1.95534 4.55909 1.91889 4.922C1.88244 5.28491 1.93118 5.65132 2.06126 5.99208C2.19133 6.33284 2.39914 6.63853 2.66815 6.88485C2.0314 7.16108 1.47794 7.599 1.06268 8.15516C0.988008 8.25461 0.955905 8.37966 0.973432 8.50278C0.990958 8.62591 1.05668 8.73703 1.15613 8.8117C1.25559 8.88637 1.38064 8.91847 1.50376 8.90095C1.62689 8.88342 1.73801 8.8177 1.81268 8.71824C2.09521 8.33847 2.46296 8.03035 2.88633 7.81866C3.30969 7.60698 3.77684 7.49766 4.25018 7.49949C4.3745 7.49949 4.49373 7.45011 4.58163 7.3622C4.66954 7.27429 4.71893 7.15506 4.71893 7.03074Z" fill="white"/>
</g>
<defs>
<clipPath id="clip0_468_1946">
<rect width="15" height="15" fill="white" transform="translate(0.5)"/>
</clipPath>
</defs>
</svg>
