<svg
	width="21"
	height="20"
	viewBox="0 0 21 20"
	fill="none"
	xmlns="http://www.w3.org/2000/svg"
>
	<g id="WindowsLogo">
		<path
			id="Vector"
			d="M8.375 11.2499V15.2843C8.375 15.4501 8.30915 15.6091 8.19194 15.7263C8.07473 15.8435 7.91576 15.9093 7.75 15.9093C7.71254 15.9091 7.67517 15.9057 7.63828 15.8992L2.63828 14.9898C2.49427 14.9636 2.36401 14.8878 2.27021 14.7754C2.17641 14.663 2.12502 14.5213 2.125 14.3749V11.2499C2.125 11.0842 2.19085 10.9252 2.30806 10.808C2.42527 10.6908 2.58424 10.6249 2.75 10.6249H7.75C7.91576 10.6249 8.07473 10.6908 8.19194 10.808C8.30915 10.9252 8.375 11.0842 8.375 11.2499ZM8.15078 4.23588C8.08048 4.17718 7.99813 4.13464 7.90957 4.11129C7.821 4.08793 7.72839 4.08433 7.63828 4.10073L2.63828 5.0101C2.49427 5.03626 2.36401 5.11214 2.27021 5.2245C2.17641 5.33686 2.12502 5.47858 2.125 5.62494V8.74995C2.125 8.91571 2.19085 9.07468 2.30806 9.19189C2.42527 9.3091 2.58424 9.37495 2.75 9.37495H7.75C7.91576 9.37495 8.07473 9.3091 8.19194 9.19189C8.30915 9.07468 8.375 8.91571 8.375 8.74995V4.71557C8.37502 4.62408 8.35494 4.53369 8.3162 4.45081C8.27746 4.36792 8.22099 4.29455 8.15078 4.23588ZM16.5 10.6249H10.25C10.0842 10.6249 9.92527 10.6908 9.80806 10.808C9.69085 10.9252 9.625 11.0842 9.625 11.2499V15.7382C9.62484 15.8847 9.67615 16.0266 9.76996 16.1392C9.86378 16.2517 9.99414 16.3277 10.1383 16.3539L16.3883 17.4898C16.4251 17.4967 16.4625 17.5001 16.5 17.4999C16.6658 17.4999 16.8247 17.4341 16.9419 17.3169C17.0592 17.1997 17.125 17.0407 17.125 16.8749V11.2499C17.125 11.0842 17.0592 10.9252 16.9419 10.808C16.8247 10.6908 16.6658 10.6249 16.5 10.6249ZM16.9008 2.64526C16.8305 2.58655 16.7481 2.54402 16.6596 2.52066C16.571 2.49731 16.4784 2.4937 16.3883 2.5101L10.1383 3.64682C9.99427 3.67298 9.86401 3.74886 9.77021 3.86122C9.67641 3.97358 9.62502 4.1153 9.625 4.26166V8.74995C9.625 8.91571 9.69085 9.07468 9.80806 9.19189C9.92527 9.3091 10.0842 9.37495 10.25 9.37495H16.5C16.6658 9.37495 16.8247 9.3091 16.9419 9.19189C17.0592 9.07468 17.125 8.91571 17.125 8.74995V3.12494C17.125 3.03345 17.1049 2.94307 17.0662 2.86018C17.0275 2.7773 16.971 2.70393 16.9008 2.64526Z"
			fill="#080808"
		/>
	</g>
</svg>
