<svg width="675" height="781" viewBox="0 0 675 781" fill="none" xmlns="http://www.w3.org/2000/svg">
<g opacity="1">
<path d="M67.5 599L48.5 601L23.5 566.5L10.5 514L1 472L3.5 427L26 400L63.5 393L148.5 395L179.5 410L183.5 422.5L187.5 435L185 468L168.5 480L179.5 522.5V570L67.5 599Z" fill="url(#paint0_linear_468_276)"/>
<path d="M85.5 477L95.5 504V557.5L67.5 599M85.5 477V508.5M85.5 477L112.25 475.488M67.5 599L48.5 601L23.5 566.5L10.5 514L1 472L3.5 427L26 400L63.5 393M67.5 599L179.5 570V522.5L168.5 480M63.5 393L108.5 418L129 438.5L157 420M63.5 393L148.5 395L179.5 410L183.5 422.5M157 420L154 468M157 420L183.5 422.5M154 468L132.5 480M154 468H185M132.5 480L124.5 474.795M132.5 480H168.5M26 462L58 438.5L91 453L100 458.855M26 462L20.5 514M26 462L100 458.855M20.5 514L38.5 545L72.5 543.5L85.5 518V508.5M20.5 514L85.5 508.5M124.5 474.795L112.25 466.825M124.5 474.795L112.25 475.488M185 468L187.5 435L183.5 422.5M185 468L168.5 480M100 458.855L112.25 466.825M112.25 466.825V475.488" stroke="url(#paint1_linear_468_276)"/>
<path d="M191.5 730.5L161 733L123.5 694L106 653.5L101.5 604.5L115 561.5L133 528.5L163.5 509H228L239 533.5L249 540L219 580.262L275.5 569.5L302 604.5L308 666.5L290 694L191.5 730.5Z" fill="url(#paint2_linear_468_276)"/>
<path d="M163.5 509L173.5 540L182 545.5M163.5 509L133 528.5L115 561.5L101.5 604.5L106 653.5L123.5 694L161 733L191.5 730.5M163.5 509H228L239 533.5L249 540M182 545.5L130 604.5M182 545.5L249 540M130 604.5L133 648.5L150 676.5H187L198.5 662.5V617.5L193.031 592.5M130 604.5L193.031 592.5M191.5 585.5L215 617.5L219 684L211.5 707.5L191.5 730.5M191.5 585.5L219 580.262M191.5 585.5L193.031 592.5M191.5 730.5L290 694L308 666.5L302 604.5L275.5 569.5L219 580.262M249 540L219 580.262" stroke="url(#paint3_linear_468_276)"/>
<path d="M37 215.5H60.5L164.5 232.5V355.5L149.5 369L47.5 365H17.5L8.5 355.5L5 314L17.5 253.5L37 215.5Z" fill="url(#paint4_linear_468_276)"/>
<path d="M110.5 349.5L112.5 314L94 260L84.5 239L60.5 215.5M110.5 349.5L94 345.5L85.5704 314M110.5 349.5L164.5 355.5M60.5 215.5H37L17.5 253.5L5 314L8.5 355.5L17.5 365H47.5M60.5 215.5L164.5 232.5V355.5M47.5 365L67 336L69.5 310M47.5 365L149.5 369L164.5 355.5M69.5 310L56.5 332L35.5 337.5L22 320V279L39 255.5L65 264L84.5 310L85.5704 314M69.5 310L85.5704 314" stroke="url(#paint5_linear_468_276)"/>
<path d="M137.5 98.5L125.5 71.5L225.5 106.5L232.5 115.63L237 121.5L232.5 132.5L221.25 137.5L210 142.5L139 125L137.5 98.5Z" fill="url(#paint6_linear_468_276)"/>
<path d="M125.5 71.5L137.5 98.5L139 125M125.5 71.5L158 91.5M125.5 71.5L225.5 106.5L232.5 115.63M139 125L150 116M139 125L210 142.5L221.25 137.5M150 116H163M150 116L221.25 137.5M163 116L158 91.5M163 116L232.5 132.5M158 91.5L232.5 115.63M232.5 132.5L237 121.5L232.5 115.63M232.5 132.5L221.25 137.5" stroke="url(#paint7_linear_468_276)"/>
<path d="M118 194L108.5 170L130 140L171 150.5L168 188.5L145.5 203L118 194Z" fill="url(#paint8_linear_468_276)"/>
<path d="M130 140V179.5M130 140L108.5 170L118 194M130 140L171 150.5L168 188.5M130 179.5L118 194M130 179.5L168 188.5M118 194L145.5 203L168 188.5" stroke="url(#paint9_linear_468_276)"/>
<path d="M141.5 190V149L169.5 128.5H232.5L320.5 94L422 128.5L419 161.5V179L436 203.5L422 258L447 356.5L413.5 397.5L387.5 406L377.5 444L381.5 488.5L353.5 550.5L332.5 558.5L268 565L198 555.5L180 534.5L166.5 478.5L173 437.5L169.5 402.5L141.5 393.5L121.5 365.5L130.5 278L112 235.5L141.5 190Z" fill="url(#paint10_linear_468_276)"/>
<path d="M268 565L198 555.5L180 534.5L166.5 478.5L173 437.5L169.5 402.5L141.5 393.5L121.5 365.5L130.5 278L112 235.5L141.5 190V149L169.5 128.5H232.5L320.5 94M268 565L289.5 546L307 484L298.5 444L307 406L340.5 393.5L371 356.5L358.5 258L381.5 190L340.5 153.5V104.5L320.5 94M268 565L332.5 558.5L353.5 550.5L381.5 488.5L377.5 444L387.5 406L413.5 397.5L447 356.5L422 258L436 203.5L419 179V161.5L422 128.5L320.5 94" stroke="url(#paint11_linear_468_276)"/>
<path d="M304.5 78.5L310 48L354.5 1L435.5 43L416.5 75L411.5 108.5H398.5L388.5 113.5L304.5 78.5Z" fill="url(#paint12_linear_468_276)"/>
<path d="M304.5 78.5L310 48L354.5 1M304.5 78.5L388.5 113.5L398.5 108.5M304.5 78.5L319 75M354.5 1L339 43L335 78.5M354.5 1L435.5 43L416.5 75L411.5 108.5M335 78.5L411.5 108.5M335 78.5L319 75M411.5 108.5H398.5M319 75L398.5 108.5" stroke="url(#paint13_linear_468_276)"/>
<path d="M296 562.5L315 524L397 512L453 566.5L485.5 625.5L476.5 683.5L445.5 723.5L412 744.5L371.5 763L315 779.5L267.5 738.5L249.5 690L254 631L262.5 611L280 602L319.011 592.5L296 562.5Z" fill="url(#paint14_linear_468_276)"/>
<path d="M315 524L296 562.5L319.011 592.5M315 524L363.5 566.5L397 631L405 683.5L397 729.5L371.5 763M315 524L397 512L453 566.5L485.5 625.5L476.5 683.5L445.5 723.5L412 744.5L371.5 763M273.5 683.5L296 719L328 729.5L357 702.5L362.312 660M273.5 683.5V631L280 602M273.5 683.5L357 653.5M280 602L262.5 611L254 631L249.5 690L267.5 738.5L315 779.5L371.5 763M280 602L319.011 592.5M319.011 592.5L357 642.026M357 642.026L363.5 650.5L362.312 660M357 642.026V653.5M357 653.5L362.312 660" stroke="url(#paint15_linear_468_276)"/>
<path d="M316 440L320.5 423H388L472 392.5H555L618.5 402L662.5 440L673.5 505.5L643.5 582L618.5 633L560 662.5L499.5 693L463.5 676.5L412.5 605.5L408 544L427 505.5L503.5 491.5V544L534 587.5L555 589.489L568 577.5L551 497L492 462.547L436.5 484.5L355.5 497L325 479L316 440Z" fill="url(#paint16_linear_468_276)"/>
<path d="M320.5 423L316 440L325 479L355.5 497M320.5 423L353 442.5L388 423M320.5 423H388M355.5 497L408 474L482.5 457L492 462.547M355.5 497L436.5 484.5L492 462.547M463.5 613L523 619L555 589.489M463.5 613L427 561M463.5 613L534 587.5M427 561V505.5M427 561L503.5 544M427 505.5L408 544L412.5 605.5L463.5 676.5L499.5 693M427 505.5L503.5 491.5V544M499.5 693L551 662.5L592 582L612.5 518L603.5 446.5M499.5 693L560 662.5L618.5 633L643.5 582L673.5 505.5L662.5 440M603.5 446.5L551 402M603.5 446.5L662.5 440M551 402L472 392.5M551 402H618.5M472 392.5L388 423M472 392.5H555L618.5 402M618.5 402L662.5 440M492 462.547L551 497L568 577.5L555 589.489M503.5 544L534 587.5M534 587.5L555 589.489" stroke="url(#paint17_linear_468_276)"/>
<path d="M346 133.5V87.5L427 120L450.5 145L444.5 174L360.5 148L346 133.5Z" fill="url(#paint18_linear_468_276)"/>
<path d="M346 87.5V133.5L360.5 148M346 87.5L374 115.5M346 87.5L427 120L450.5 145M360.5 148L374 115.5M360.5 148L444.5 174L450.5 145M374 115.5L450.5 145" stroke="url(#paint19_linear_468_276)"/>
<path d="M371.5 298.5L418.5 186L466.5 140L507 130L577 160L615.5 186L641.5 239L652.5 288.097L641.5 339L615.5 357L518.5 350H485L472 334.73L453.5 344L375 339L371.5 298.5Z" fill="url(#paint20_linear_468_276)"/>
<path d="M507 130L466.5 140L418.5 186L371.5 298.5L375 339M507 130L546.5 155M507 130L577 160L615.5 186M546.5 155L615.5 186M546.5 155L577 214.5L592.5 275.5M592.5 275.5L580.5 331M592.5 275.5L652.5 288.097M580.5 331L552 350H518.5M580.5 331L641.5 339M444.5 280L453.5 313L472 334.73M444.5 280L472 308.5L516.5 313L526.913 302M444.5 280L497.5 288.097M552 218.5V275.5L526.913 302M552 218.5L507 186L453.5 214.5M552 218.5L526.913 234M453.5 214.5L397.5 331M453.5 214.5L526.913 234M397.5 331L375 339M397.5 331L472 334.73M375 339L453.5 344L472 334.73M472 334.73L485 350H518.5M526.913 302L516.5 291L497.5 288.097M497.5 288.097L526.913 234M615.5 186L641.5 239L652.5 288.097M652.5 288.097L641.5 339M641.5 339L615.5 357L518.5 350" stroke="url(#paint21_linear_468_276)"/>
</g>
<defs>
<linearGradient id="paint0_linear_468_276" x1="164.59" y1="393" x2="31.1563" y2="605.549" gradientUnits="userSpaceOnUse">
<stop stop-color="#080808"/>
<stop offset="1" stop-color="#05332B"/>
</linearGradient>
<linearGradient id="paint1_linear_468_276" x1="94.25" y1="393" x2="94.25" y2="601" gradientUnits="userSpaceOnUse">
<stop stop-color="#0CF1CA"/>
<stop offset="1" stop-color="#1DCCEB"/>
</linearGradient>
<linearGradient id="paint2_linear_468_276" x1="282.633" y1="509" x2="140.703" y2="741.448" gradientUnits="userSpaceOnUse">
<stop stop-color="#080808"/>
<stop offset="1" stop-color="#05332B"/>
</linearGradient>
<linearGradient id="paint3_linear_468_276" x1="204.75" y1="509" x2="204.75" y2="733" gradientUnits="userSpaceOnUse">
<stop stop-color="#0CF1CA"/>
<stop offset="1" stop-color="#1DCCEB"/>
</linearGradient>
<linearGradient id="paint4_linear_468_276" x1="144.907" y1="215.5" x2="53.323" y2="384.563" gradientUnits="userSpaceOnUse">
<stop stop-color="#080808"/>
<stop offset="1" stop-color="#05332B"/>
</linearGradient>
<linearGradient id="paint5_linear_468_276" x1="84.75" y1="215.5" x2="84.75" y2="369" gradientUnits="userSpaceOnUse">
<stop stop-color="#0CF1CA"/>
<stop offset="1" stop-color="#1DCCEB"/>
</linearGradient>
<linearGradient id="paint6_linear_468_276" x1="223.303" y1="71.5" x2="191.177" y2="161.131" gradientUnits="userSpaceOnUse">
<stop stop-color="#080808"/>
<stop offset="1" stop-color="#05332B"/>
</linearGradient>
<linearGradient id="paint7_linear_468_276" x1="181.25" y1="71.5" x2="181.25" y2="142.5" gradientUnits="userSpaceOnUse">
<stop stop-color="#0CF1CA"/>
<stop offset="1" stop-color="#1DCCEB"/>
</linearGradient>
<linearGradient id="paint8_linear_468_276" x1="163.322" y1="140" x2="124.801" y2="207.893" gradientUnits="userSpaceOnUse">
<stop stop-color="#080808"/>
<stop offset="1" stop-color="#05332B"/>
</linearGradient>
<linearGradient id="paint9_linear_468_276" x1="139.75" y1="140" x2="139.75" y2="203" gradientUnits="userSpaceOnUse">
<stop stop-color="#0CF1CA"/>
<stop offset="1" stop-color="#1DCCEB"/>
</linearGradient>
<linearGradient id="paint10_linear_468_276" x1="405.848" y1="94" x2="79.3319" y2="506.579" gradientUnits="userSpaceOnUse">
<stop stop-color="#080808"/>
<stop offset="1" stop-color="#05332B"/>
</linearGradient>
<linearGradient id="paint11_linear_468_276" x1="279.5" y1="94" x2="279.5" y2="565" gradientUnits="userSpaceOnUse">
<stop stop-color="#0CF1CA"/>
<stop offset="1" stop-color="#1DCCEB"/>
</linearGradient>
<linearGradient id="paint12_linear_468_276" x1="419.408" y1="1.00001" x2="356.61" y2="130.911" gradientUnits="userSpaceOnUse">
<stop stop-color="#080808"/>
<stop offset="1" stop-color="#05332B"/>
</linearGradient>
<linearGradient id="paint13_linear_468_276" x1="370" y1="1" x2="370" y2="113.5" gradientUnits="userSpaceOnUse">
<stop stop-color="#0CF1CA"/>
<stop offset="1" stop-color="#1DCCEB"/>
</linearGradient>
<linearGradient id="paint14_linear_468_276" x1="456.51" y1="512" x2="283.713" y2="782.832" gradientUnits="userSpaceOnUse">
<stop stop-color="#080808"/>
<stop offset="1" stop-color="#05332B"/>
</linearGradient>
<linearGradient id="paint15_linear_468_276" x1="367.5" y1="512" x2="367.5" y2="779.5" gradientUnits="userSpaceOnUse">
<stop stop-color="#0CF1CA"/>
<stop offset="1" stop-color="#1DCCEB"/>
</linearGradient>
<linearGradient id="paint16_linear_468_276" x1="629.584" y1="392.5" x2="464.086" y2="742.287" gradientUnits="userSpaceOnUse">
<stop stop-color="#080808"/>
<stop offset="1" stop-color="#05332B"/>
</linearGradient>
<linearGradient id="paint17_linear_468_276" x1="494.75" y1="392.5" x2="494.75" y2="693" gradientUnits="userSpaceOnUse">
<stop stop-color="#0CF1CA"/>
<stop offset="1" stop-color="#1DCCEB"/>
</linearGradient>
<linearGradient id="paint18_linear_468_276" x1="437.663" y1="87.5" x2="390.489" y2="188.748" gradientUnits="userSpaceOnUse">
<stop stop-color="#080808"/>
<stop offset="1" stop-color="#05332B"/>
</linearGradient>
<linearGradient id="paint19_linear_468_276" x1="398.25" y1="87.5" x2="398.25" y2="174" gradientUnits="userSpaceOnUse">
<stop stop-color="#0CF1CA"/>
<stop offset="1" stop-color="#1DCCEB"/>
</linearGradient>
<linearGradient id="paint20_linear_468_276" x1="617.982" y1="130" x2="496.129" y2="397.975" gradientUnits="userSpaceOnUse">
<stop stop-color="#080808"/>
<stop offset="1" stop-color="#05332B"/>
</linearGradient>
<linearGradient id="paint21_linear_468_276" x1="512" y1="130" x2="512" y2="357" gradientUnits="userSpaceOnUse">
<stop stop-color="#0CF1CA"/>
<stop offset="1" stop-color="#1DCCEB"/>
</linearGradient>
</defs>
</svg>
