<svg
	width="21"
	height="20"
	viewBox="0 0 21 20"
	fill="none"
	xmlns="http://www.w3.org/2000/svg"
>
	<g id="Asterisk" opacity="0.8">
		<path
			id="Vector"
			d="M17.5363 14.0719C17.4941 14.1425 17.4383 14.204 17.3722 14.253C17.3061 14.302 17.231 14.3375 17.1511 14.3574C17.0713 14.3773 16.9883 14.3812 16.9069 14.3689C16.8255 14.3567 16.7474 14.3285 16.677 14.2859L11.3754 11.1039V16.875C11.3754 17.0408 11.3096 17.1997 11.1923 17.3169C11.0751 17.4342 10.9162 17.5 10.7504 17.5C10.5846 17.5 10.4257 17.4342 10.3085 17.3169C10.1913 17.1997 10.1254 17.0408 10.1254 16.875V11.1039L4.82228 14.2859C4.75187 14.3292 4.67358 14.3581 4.59195 14.3709C4.51031 14.3837 4.42695 14.3801 4.34668 14.3605C4.26641 14.3409 4.19083 14.3055 4.12431 14.2565C4.05779 14.2075 4.00166 14.1458 3.95915 14.0749C3.91664 14.004 3.88861 13.9255 3.87667 13.8437C3.86474 13.7619 3.86913 13.6786 3.88961 13.5985C3.91008 13.5185 3.94623 13.4433 3.99595 13.3773C4.04568 13.3113 4.108 13.2558 4.17931 13.2141L9.53556 10L4.17931 6.78594C4.108 6.74418 4.04568 6.6887 3.99595 6.62271C3.94623 6.55671 3.91008 6.48151 3.88961 6.40145C3.86913 6.3214 3.86474 6.23808 3.87667 6.15631C3.88861 6.07454 3.91664 5.99595 3.95915 5.92509C4.00166 5.85423 4.05779 5.7925 4.12431 5.74348C4.19083 5.69445 4.26641 5.6591 4.34668 5.63948C4.42695 5.61985 4.51031 5.61634 4.59195 5.62914C4.67358 5.64194 4.75187 5.67081 4.82228 5.71406L10.1254 8.89609V3.125C10.1254 2.95924 10.1913 2.80027 10.3085 2.68306C10.4257 2.56585 10.5846 2.5 10.7504 2.5C10.9162 2.5 11.0751 2.56585 11.1923 2.68306C11.3096 2.80027 11.3754 2.95924 11.3754 3.125V8.89609L16.6785 5.71406C16.7489 5.67081 16.8272 5.64194 16.9089 5.62914C16.9905 5.61634 17.0739 5.61985 17.1541 5.63948C17.2344 5.6591 17.31 5.69445 17.3765 5.74348C17.443 5.7925 17.4991 5.85423 17.5417 5.92509C17.5842 5.99595 17.6122 6.07454 17.6241 6.15631C17.6361 6.23808 17.6317 6.3214 17.6112 6.40145C17.5907 6.48151 17.5546 6.55671 17.5049 6.62271C17.4551 6.6887 17.3928 6.74418 17.3215 6.78594L11.9652 10L17.3215 13.2141C17.392 13.2563 17.4534 13.3119 17.5024 13.3779C17.5513 13.4438 17.5867 13.5188 17.6067 13.5984C17.6267 13.6781 17.6307 13.7609 17.6186 13.8422C17.6066 13.9234 17.5786 14.0015 17.5363 14.0719Z"
			fill="white"
		/>
	</g>
</svg>
