<svg width="19" height="14" viewBox="0 0 19 14" fill="none" xmlns="http://www.w3.org/2000/svg">
<path d="M18.8695 6.72812C18.7273 3.05781 15.6773 0.125 12.0047 0.125C10.7271 0.1252 9.47479 0.480985 8.38793 1.15253C7.30107 1.82407 6.42258 2.78486 5.85078 3.92734C5.37555 4.87451 5.12708 5.91921 5.125 6.97891C5.12745 7.13992 5.06902 7.29593 4.96139 7.41572C4.85377 7.53551 4.70489 7.61025 4.54453 7.625C4.45879 7.63112 4.3727 7.6195 4.29166 7.59084C4.21061 7.56219 4.13635 7.51712 4.07351 7.45846C4.01067 7.3998 3.96061 7.32881 3.92645 7.24993C3.8923 7.17104 3.87478 7.08596 3.875 7C3.87434 6.12581 4.01523 5.25728 4.29219 4.42813C4.31044 4.37496 4.31401 4.31786 4.30252 4.26283C4.29104 4.20781 4.26493 4.1569 4.22694 4.11547C4.18895 4.07404 4.14049 4.04363 4.08666 4.02743C4.03284 4.01123 3.97564 4.00985 3.92109 4.02344C2.83814 4.29336 1.87642 4.91736 1.18866 5.79635C0.500893 6.67534 0.126523 7.75892 0.125 8.875C0.125 11.6242 2.44922 13.875 5.20312 13.875H12C12.9254 13.874 13.8412 13.6864 14.6924 13.3233C15.5437 12.9603 16.3129 12.4293 16.9542 11.7621C17.5956 11.0949 18.0957 10.3052 18.4248 9.44025C18.7539 8.57531 18.9051 7.65287 18.8695 6.72812ZM14.9422 7.44219C14.8841 7.5003 14.8152 7.5464 14.7393 7.57785C14.6635 7.6093 14.5821 7.62549 14.5 7.62549C14.4179 7.62549 14.3365 7.6093 14.2607 7.57785C14.1848 7.5464 14.1159 7.5003 14.0578 7.44219L12.625 6.00859V10.75C12.625 10.9158 12.5592 11.0747 12.4419 11.1919C12.3247 11.3092 12.1658 11.375 12 11.375C11.8342 11.375 11.6753 11.3092 11.5581 11.1919C11.4408 11.0747 11.375 10.9158 11.375 10.75V6.00859L9.94219 7.44219C9.82491 7.55946 9.66585 7.62535 9.5 7.62535C9.33415 7.62535 9.17509 7.55946 9.05781 7.44219C8.94054 7.32491 8.87465 7.16585 8.87465 7C8.87465 6.83415 8.94054 6.67509 9.05781 6.55781L11.5578 4.05781C11.6159 3.9997 11.6848 3.9536 11.7607 3.92215C11.8365 3.8907 11.9179 3.87451 12 3.87451C12.0821 3.87451 12.1635 3.8907 12.2393 3.92215C12.3152 3.9536 12.3841 3.9997 12.4422 4.05781L14.9422 6.55781C15.0003 6.61586 15.0464 6.68479 15.0779 6.76066C15.1093 6.83654 15.1255 6.91787 15.1255 7C15.1255 7.08213 15.1093 7.16346 15.0779 7.23934C15.0464 7.31521 15.0003 7.38414 14.9422 7.44219Z" fill="white"/>
</svg>
