<svg width="21" height="18" viewBox="0 0 21 18" fill="none" xmlns="http://www.w3.org/2000/svg">
<path d="M15 0C13.0678 0 11.4113 1.7025 10.5 4.29844C9.58875 1.7025 7.93219 0 6 0C3.05625 0 0.75 3.95344 0.75 9C0.75 14.0466 3.05625 18 6 18C7.93219 18 9.58875 16.2975 10.5 13.7016C11.4113 16.2975 13.0678 18 15 18C17.9438 18 20.25 14.0466 20.25 9C20.25 3.95344 17.9438 0 15 0ZM8.52375 14.4741C7.82156 15.7612 6.90188 16.5 6 16.5C5.09812 16.5 4.17844 15.7612 3.47625 14.4741C3.02231 13.6132 2.69878 12.6897 2.51625 11.7338C2.97317 11.9403 3.47457 12.029 3.97461 11.9917C4.47464 11.9545 4.95737 11.7925 5.37867 11.5206C5.79996 11.2487 6.14638 10.8755 6.38625 10.4352C6.62613 9.99485 6.75181 9.50142 6.75181 9C6.75181 8.49858 6.62613 8.00515 6.38625 7.56483C6.14638 7.12451 5.79996 6.75133 5.37867 6.47942C4.95737 6.2075 4.47464 6.04552 3.97461 6.00828C3.47457 5.97105 2.97317 6.05974 2.51625 6.26625C2.69878 5.31031 3.02231 4.38679 3.47625 3.52594C4.17844 2.23875 5.09812 1.5 6 1.5C6.90188 1.5 7.82156 2.23875 8.52375 3.52594C9.31406 4.97531 9.75 6.91969 9.75 9C9.75 11.0803 9.31406 13.0247 8.52375 14.4741ZM17.5238 14.4741C16.8216 15.7612 15.9019 16.5 15 16.5C14.0981 16.5 13.1784 15.7612 12.4762 14.4741C12.0223 13.6132 11.6988 12.6897 11.5162 11.7338C11.9732 11.9403 12.4746 12.029 12.9746 11.9917C13.4746 11.9545 13.9574 11.7925 14.3787 11.5206C14.8 11.2487 15.1464 10.8755 15.3863 10.4352C15.6261 9.99485 15.7518 9.50142 15.7518 9C15.7518 8.49858 15.6261 8.00515 15.3863 7.56483C15.1464 7.12451 14.8 6.75133 14.3787 6.47942C13.9574 6.2075 13.4746 6.04552 12.9746 6.00828C12.4746 5.97105 11.9732 6.05974 11.5162 6.26625C11.6988 5.31031 12.0223 4.38679 12.4762 3.52594C13.1784 2.23875 14.0981 1.5 15 1.5C15.9019 1.5 16.8216 2.23875 17.5238 3.52594C18.3141 4.97531 18.75 6.91969 18.75 9C18.75 11.0803 18.3141 13.0247 17.5238 14.4741Z" fill="white"/>
</svg>
