<svg
	width="21"
	height="20"
	viewBox="0 0 21 20"
	fill="none"
	xmlns="http://www.w3.org/2000/svg"
>
	<g id="GithubLogo" opacity="0.8" clip-path="url(#clip0_400_7175)">
		<path
			id="Vector"
			d="M3.375 8.12501V8.75001C3.37631 9.80751 3.76021 10.8288 4.4558 11.6254C5.15139 12.4219 6.11169 12.9399 7.15938 13.0836C6.73173 13.6308 6.4996 14.3055 6.5 15V18.125C6.5 18.2908 6.56585 18.4497 6.68306 18.567C6.80027 18.6842 6.95924 18.75 7.125 18.75H12.125C12.2908 18.75 12.4497 18.6842 12.5669 18.567C12.6842 18.4497 12.75 18.2908 12.75 18.125V16.875H14.625C15.4538 16.875 16.2487 16.5458 16.8347 15.9597C17.4208 15.3737 17.75 14.5788 17.75 13.75C17.75 13.2527 17.9475 12.7758 18.2992 12.4242C18.6508 12.0726 19.1277 11.875 19.625 11.875C19.7908 11.875 19.9497 11.8092 20.0669 11.692C20.1842 11.5747 20.25 11.4158 20.25 11.25C20.25 11.0842 20.1842 10.9253 20.0669 10.8081C19.9497 10.6909 19.7908 10.625 19.625 10.625C19.2146 10.625 18.8083 10.7058 18.4291 10.8629C18.05 11.0199 17.7055 11.2501 17.4153 11.5403C17.1251 11.8305 16.8949 12.175 16.7379 12.5541C16.5808 12.9333 16.5 13.3396 16.5 13.75C16.5 14.2473 16.3025 14.7242 15.9508 15.0758C15.5992 15.4275 15.1223 15.625 14.625 15.625H12.75V15C12.7504 14.3055 12.5183 13.6308 12.0906 13.0836C13.1383 12.9399 14.0986 12.4219 14.7942 11.6254C15.4898 10.8288 15.8737 9.80751 15.875 8.75001V8.12501C15.8672 7.34827 15.6604 6.58651 15.2742 5.91251C15.4653 5.29626 15.5265 4.64711 15.4542 4.00599C15.3819 3.36487 15.1775 2.7457 14.8539 2.18751C14.799 2.09248 14.7201 2.01357 14.6251 1.95871C14.53 1.90385 14.4222 1.87499 14.3125 1.87501C13.5845 1.87349 12.8663 2.04225 12.2151 2.36781C11.564 2.69337 10.9981 3.16671 10.5625 3.75001H8.6875C8.25193 3.16671 7.68598 2.69337 7.03485 2.36781C6.38373 2.04225 5.66548 1.87349 4.9375 1.87501C4.82777 1.87499 4.71996 1.90385 4.62492 1.95871C4.52988 2.01357 4.45096 2.09248 4.39609 2.18751C4.07249 2.74569 3.86813 3.3649 3.79592 4.00604C3.72371 4.64719 3.78522 5.29634 3.97656 5.91251C3.58968 6.58624 3.38253 7.34813 3.375 8.12501Z"
			fill="white"
		/>
	</g>
	<defs>
		<clipPath id="clip0_400_7175">
			<rect width="20" height="20" fill="white" transform="matrix(-1 0 0 1 20.25 0)" />
		</clipPath>
	</defs>
</svg>
