<svg width="18" height="17" viewBox="0 0 18 17" fill="none" xmlns="http://www.w3.org/2000/svg">
<path d="M17.6245 1.5C17.6245 1.33424 17.5586 1.17527 17.4414 1.05806C17.3242 0.940848 17.1652 0.875 16.9995 0.875C13.5557 0.875 10.0221 4.75859 8.05961 7.33047C7.35873 7.11582 6.61727 7.06853 5.8948 7.1924C5.17233 7.31628 4.48897 7.60786 3.89963 8.04374C3.31028 8.47961 2.83138 9.04762 2.50137 9.70215C2.17136 10.3567 1.99945 11.0795 1.99946 11.8125C1.99946 14.225 0.472895 15.307 0.400238 15.357C0.28937 15.4319 0.205449 15.5404 0.160814 15.6665C0.116179 15.7926 0.113187 15.9297 0.152277 16.0576C0.191367 16.1856 0.270477 16.2976 0.377973 16.3772C0.485469 16.4568 0.61568 16.4999 0.749457 16.5H6.68696C7.41997 16.5 8.14277 16.3281 8.7973 15.9981C9.45183 15.6681 10.0198 15.1892 10.4557 14.5998C10.8916 14.0105 11.1832 13.3271 11.3071 12.6047C11.4309 11.8822 11.3836 11.1407 11.169 10.4398C13.7416 8.47734 17.6245 4.94375 17.6245 1.5ZM9.21977 7.87109C9.48748 7.52422 9.75024 7.1974 10.008 6.89062C10.6391 7.31696 11.1825 7.86037 11.6088 8.49141C11.3015 8.7487 10.9747 9.01146 10.6284 9.27969C10.2642 8.71548 9.78398 8.2353 9.21977 7.87109ZM12.5557 7.66172C12.0839 6.99594 11.5027 6.41481 10.837 5.94297C13.3198 3.24531 15.1924 2.42734 16.2979 2.2C16.0752 3.30625 15.2534 5.17891 12.5557 7.66172Z" fill="white"/>
</svg>
