<svg width="16" height="18" viewBox="0 0 16 18" fill="none" xmlns="http://www.w3.org/2000/svg">
<path d="M13.484 3.0568C12.7738 2.33938 11.9289 1.76911 10.998 1.37864C10.067 0.98817 9.06816 0.785165 8.05863 0.78125H8C5.95286 0.78125 3.98957 1.59447 2.54202 3.04202C1.09447 4.48957 0.28125 6.45286 0.28125 8.5V12.6562C0.28125 13.1287 0.468917 13.5817 0.802966 13.9158C1.13702 14.2498 1.59008 14.4375 2.0625 14.4375H3.25C3.72242 14.4375 4.17548 14.2498 4.50953 13.9158C4.84358 13.5817 5.03125 13.1287 5.03125 12.6562V9.6875C5.03125 9.21508 4.84358 8.76201 4.50953 8.42797C4.17548 8.09392 3.72242 7.90625 3.25 7.90625H1.49547C1.60998 6.66823 2.075 5.4885 2.83603 4.50533C3.59706 3.52215 4.62257 2.77627 5.79236 2.35511C6.96216 1.93394 8.22777 1.85494 9.44086 2.12736C10.6539 2.39978 11.7642 3.01234 12.6416 3.89324C13.714 4.97112 14.3736 6.39149 14.5053 7.90625H12.75C12.2776 7.90625 11.8245 8.09392 11.4905 8.42797C11.1564 8.76201 10.9688 9.21508 10.9688 9.6875V12.6562C10.9688 13.1287 11.1564 13.5817 11.4905 13.9158C11.8245 14.2498 12.2776 14.4375 12.75 14.4375H14.5312C14.5312 14.9099 14.3436 15.363 14.0095 15.697C13.6755 16.0311 13.2224 16.2188 12.75 16.2188H8.59375C8.43628 16.2188 8.28525 16.2813 8.1739 16.3927C8.06256 16.504 8 16.655 8 16.8125C8 16.97 8.06256 17.121 8.1739 17.2323C8.28525 17.3437 8.43628 17.4062 8.59375 17.4062H12.75C13.5374 17.4062 14.2925 17.0935 14.8492 16.5367C15.406 15.98 15.7188 15.2249 15.7188 14.4375V8.5C15.7226 7.49031 15.5272 6.48978 15.1437 5.55573C14.7603 4.62169 14.1963 3.77249 13.484 3.0568ZM3.25 9.09375C3.40747 9.09375 3.55849 9.15631 3.66984 9.26765C3.78119 9.379 3.84375 9.53003 3.84375 9.6875V12.6562C3.84375 12.8137 3.78119 12.9647 3.66984 13.0761C3.55849 13.1874 3.40747 13.25 3.25 13.25H2.0625C1.90503 13.25 1.75401 13.1874 1.64266 13.0761C1.53131 12.9647 1.46875 12.8137 1.46875 12.6562V9.09375H3.25ZM12.75 13.25C12.5925 13.25 12.4415 13.1874 12.3302 13.0761C12.2188 12.9647 12.1562 12.8137 12.1562 12.6562V9.6875C12.1562 9.53003 12.2188 9.379 12.3302 9.26765C12.4415 9.15631 12.5925 9.09375 12.75 9.09375H14.5312V13.25H12.75Z" fill="white"/>
</svg>
